<svg width="36" height="36" viewBox="0 0 36 36" fill="none" xmlns="http://www.w3.org/2000/svg">
<g clip-path="url(#clip0_2_171)">
<rect width="36" height="36" fill="white"/>
<rect width="36" height="36" fill="white"/>
<path d="M21.4672 2.94745C30.0729 4.92094 35.45 13.498 33.4765 22.1038C31.7535 29.6166 24.9981 34.6673 17.5842 34.5159L7.06122 6.77245C10.8074 3.32703 16.1314 1.724 21.4672 2.94745Z" fill="#FF8037"/>
<path opacity="0.8" d="M21.2305 4.6983C28.9756 6.47442 33.8142 14.1928 32.0382 21.9379C30.4344 28.9318 23.9856 33.5553 17.0467 33.0788L7.7697 8.61781C11.1571 5.18984 16.188 3.54204 21.2305 4.6983Z" fill="black"/>
<path d="M31.1152 21.7265C32.7926 14.4116 28.2226 7.12189 20.9077 5.44443C16.0554 4.33169 11.2142 5.96801 8.01489 9.331L16.7167 32.2304C23.3606 32.8049 29.582 28.4122 31.1152 21.7265Z" fill="#FFF5B3"/>
<mask id="path-5-outside-1_2_171" maskUnits="userSpaceOnUse" x="2.18077" y="5.17343" width="29.157" height="30.665" fill="black">
<rect fill="white" x="2.18077" y="5.17343" width="29.157" height="30.665"/>
<path d="M20.1062 8.96027C25.4385 10.1698 28.7813 15.4734 27.5721 20.8057C26.3625 26.1382 21.0583 29.481 15.7258 28.2714C14.7734 28.0554 13.8857 27.7067 13.0749 27.2526C12.9454 27.4192 12.8012 27.578 12.6411 27.726L10.717 29.5025C9.13908 30.9606 6.6778 30.8637 5.21956 29.2859C3.76144 27.708 3.85835 25.2467 5.43616 23.7885L7.35949 22.0107C7.67362 21.7205 8.02301 21.4923 8.3923 21.3247C7.95109 19.7788 7.88027 18.1036 8.26096 16.4253C9.47077 11.0933 14.774 7.75103 20.1062 8.96027ZM10.3778 29.1352C10.2929 29.2136 10.2041 29.2865 10.1137 29.3547C10.1583 29.3211 10.2032 29.2867 10.2465 29.2506L10.3776 29.1361L12.3009 27.3584L12.3011 27.3574L10.3778 29.1352ZM7.69875 22.3781L5.77563 24.1549L5.73989 24.1888C5.75158 24.1777 5.76352 24.1668 5.77541 24.1558L7.69991 22.3773L7.69875 22.3781ZM27.2493 19.7481C27.2108 20.0631 27.1562 20.3791 27.0845 20.6951C27.1204 20.537 27.1525 20.379 27.18 20.2211C27.2076 20.063 27.2311 19.9051 27.2504 19.7474C27.2697 19.5899 27.2844 19.4327 27.2953 19.2759L27.2493 19.7481Z"/>
</mask>
<path d="M20.1062 8.96027C25.4385 10.1698 28.7813 15.4734 27.5721 20.8057C26.3625 26.1382 21.0583 29.481 15.7258 28.2714C14.7734 28.0554 13.8857 27.7067 13.0749 27.2526C12.9454 27.4192 12.8012 27.578 12.6411 27.726L10.717 29.5025C9.13908 30.9606 6.6778 30.8637 5.21956 29.2859C3.76144 27.708 3.85835 25.2467 5.43616 23.7885L7.35949 22.0107C7.67362 21.7205 8.02301 21.4923 8.3923 21.3247C7.95109 19.7788 7.88027 18.1036 8.26096 16.4253C9.47077 11.0933 14.774 7.75103 20.1062 8.96027ZM10.3778 29.1352C10.2929 29.2136 10.2041 29.2865 10.1137 29.3547C10.1583 29.3211 10.2032 29.2867 10.2465 29.2506L10.3776 29.1361L12.3009 27.3584L12.3011 27.3574L10.3778 29.1352ZM7.69875 22.3781L5.77563 24.1549L5.73989 24.1888C5.75158 24.1777 5.76352 24.1668 5.77541 24.1558L7.69991 22.3773L7.69875 22.3781ZM27.2493 19.7481C27.2108 20.0631 27.1562 20.3791 27.0845 20.6951C27.1204 20.537 27.1525 20.379 27.18 20.2211C27.2076 20.063 27.2311 19.9051 27.2504 19.7474C27.2697 19.5899 27.2844 19.4327 27.2953 19.2759L27.2493 19.7481Z" fill="#FFFC64"/>
<path d="M20.1062 8.96027L20.3274 7.98505L20.3273 7.98504L20.1062 8.96027ZM27.5721 20.8057L28.5474 21.0269L28.5474 21.0269L27.5721 20.8057ZM15.7258 28.2714L15.5045 29.2467L15.5045 29.2467L15.7258 28.2714ZM13.0749 27.2526L13.5636 26.3801L12.8132 25.9598L12.2854 26.6389L13.0749 27.2526ZM12.6411 27.726L13.3195 28.4607L13.3198 28.4604L12.6411 27.726ZM10.717 29.5025L10.0386 28.7678L10.0384 28.7681L10.717 29.5025ZM5.21956 29.2859L4.48511 29.9646L4.48519 29.9647L5.21956 29.2859ZM5.43616 23.7885L6.11489 24.5229L6.11493 24.5228L5.43616 23.7885ZM7.35949 22.0107L6.68083 21.2763L6.68073 21.2764L7.35949 22.0107ZM8.3923 21.3247L8.80559 22.2353L9.59045 21.8791L9.3539 21.0503L8.3923 21.3247ZM8.26096 16.4253L7.28575 16.204L7.28573 16.2041L8.26096 16.4253ZM10.3778 29.1352L11.0564 29.8696L11.0565 29.8695L10.3778 29.1352ZM10.2465 29.2506L10.887 30.0185L10.8957 30.0113L10.9041 30.0039L10.2465 29.2506ZM10.3776 29.1361L11.0352 29.8895L11.0459 29.8801L11.0563 29.8705L10.3776 29.1361ZM12.3009 27.3584L12.9797 28.0927L13.2075 27.8822L13.2761 27.5796L12.3009 27.3584ZM12.3011 27.3574L13.2763 27.5787L13.9894 24.4352L11.6223 26.6231L12.3011 27.3574ZM7.69875 22.3781L7.16558 21.5321L7.08772 21.5811L7.02013 21.6436L7.69875 22.3781ZM5.77563 24.1549L5.09695 23.4203L5.0869 23.4299L5.77563 24.1549ZM5.73989 24.1888L5.05093 23.464L6.42862 24.9139L5.73989 24.1888ZM5.77541 24.1558L5.09671 23.4214L5.09668 23.4215L5.77541 24.1558ZM7.69991 22.3773L8.37861 23.1118L7.16675 21.5313L7.69991 22.3773ZM27.2493 19.7481L28.2419 19.8693L28.2434 19.8573L28.2445 19.8451L27.2493 19.7481ZM27.0845 20.6951L26.1093 20.474L28.0598 20.9162L27.0845 20.6951ZM27.18 20.2211L26.1949 20.0495L26.1948 20.0496L27.18 20.2211ZM27.2504 19.7474L28.243 19.8689L28.243 19.8689L27.2504 19.7474ZM27.2953 19.2759L28.2929 19.3454L26.3 19.1789L27.2953 19.2759ZM20.1062 8.96027L19.885 9.9355C24.6787 11.0229 27.684 15.7909 26.5969 20.5845L27.5721 20.8057L28.5474 21.0269C29.8787 15.1559 26.1982 9.31675 20.3274 7.98505L20.1062 8.96027ZM27.5721 20.8057L26.5969 20.5845C25.5095 25.3784 20.7409 28.3836 15.947 27.2962L15.7258 28.2714L15.5045 29.2467C21.3757 30.5784 27.2156 26.898 28.5474 21.0269L27.5721 20.8057ZM15.7258 28.2714L15.947 27.2962C15.0908 27.102 14.2929 26.7886 13.5636 26.3801L13.0749 27.2526L12.5863 28.1251C13.4785 28.6248 14.456 29.0088 15.5045 29.2467L15.7258 28.2714ZM13.0749 27.2526L12.2854 26.6389C12.1877 26.7646 12.0803 26.8826 11.9624 26.9915L12.6411 27.726L13.3198 28.4604C13.5221 28.2734 13.7031 28.0739 13.8645 27.8663L13.0749 27.2526ZM12.6411 27.726L11.9627 26.9913L10.0386 28.7678L10.717 29.5025L11.3954 30.2372L13.3195 28.4607L12.6411 27.726ZM10.717 29.5025L10.0384 28.7681C8.86597 29.8514 7.03731 29.7794 5.95393 28.6072L5.21956 29.2859L4.48519 29.9647C6.31829 31.948 9.41218 32.0699 11.3957 30.237L10.717 29.5025ZM5.21956 29.2859L5.95401 28.6073C4.87063 27.4349 4.9427 25.6062 6.11489 24.5229L5.43616 23.7885L4.75743 23.0541C2.77401 24.8872 2.65224 27.9811 4.48511 29.9646L5.21956 29.2859ZM5.43616 23.7885L6.11493 24.5228L8.03826 22.7451L7.35949 22.0107L6.68073 21.2764L4.75739 23.0541L5.43616 23.7885ZM7.35949 22.0107L8.03816 22.7452C8.27213 22.529 8.5315 22.3597 8.80559 22.2353L8.3923 21.3247L7.97901 20.4141C7.51452 20.625 7.0751 20.9119 6.68083 21.2763L7.35949 22.0107ZM8.3923 21.3247L9.3539 21.0503C8.95754 19.6615 8.89362 18.1567 9.23618 16.6465L8.26096 16.4253L7.28573 16.2041C6.86692 18.0504 6.94465 19.8962 7.4307 21.5992L8.3923 21.3247ZM8.26096 16.4253L9.23617 16.6466C10.3238 11.8531 15.0914 8.84841 19.885 9.93551L20.1062 8.96027L20.3273 7.98504C14.4566 6.65365 8.61775 10.3335 7.28575 16.204L8.26096 16.4253ZM10.3778 29.1352L9.69911 28.4007C9.64251 28.453 9.57998 28.5047 9.51172 28.5562L10.1137 29.3547L10.7157 30.1532C10.8282 30.0684 10.9432 29.9742 11.0564 29.8696L10.3778 29.1352ZM10.1137 29.3547L10.7157 30.1532C10.7625 30.1179 10.8238 30.0712 10.887 30.0185L10.2465 29.2506L9.60587 28.4827C9.58251 28.5022 9.55406 28.5242 9.51171 28.5562L10.1137 29.3547ZM10.2465 29.2506L10.9041 30.0039L11.0352 29.8895L10.3776 29.1361L9.7199 28.3828L9.58879 28.4973L10.2465 29.2506ZM10.3776 29.1361L11.0563 29.8705L12.9797 28.0927L12.3009 27.3584L11.6221 26.624L9.69879 28.4018L10.3776 29.1361ZM12.3009 27.3584L13.2761 27.5796L13.2763 27.5787L12.3011 27.3574L11.3259 27.1362L11.3257 27.1372L12.3009 27.3584ZM12.3011 27.3574L11.6223 26.6231L9.699 28.4008L10.3778 29.1352L11.0565 29.8695L12.9799 28.0918L12.3011 27.3574ZM7.69875 22.3781L7.02013 21.6436L5.09701 23.4204L5.77563 24.1549L6.45424 24.8894L8.37736 23.1126L7.69875 22.3781ZM5.77563 24.1549L5.0869 23.4299L5.05116 23.4638L5.73989 24.1888L6.42862 24.9139L6.46435 24.8799L5.77563 24.1549ZM5.73989 24.1888L6.42885 24.9136C6.43378 24.9089 6.43595 24.907 6.45414 24.8902L5.77541 24.1558L5.09668 23.4215C5.09109 23.4266 5.06939 23.4465 5.05093 23.464L5.73989 24.1888ZM5.77541 24.1558L6.45411 24.8903L8.37861 23.1118L7.69991 22.3773L7.02122 21.6429L5.09671 23.4214L5.77541 24.1558ZM7.69991 22.3773L7.16675 21.5313L7.16558 21.5321L7.69875 22.3781L8.23191 23.2241L8.23308 23.2234L7.69991 22.3773ZM27.2493 19.7481L26.2566 19.6269C26.2222 19.9086 26.1734 20.1913 26.1093 20.474L27.0845 20.6951L28.0598 20.9162C28.139 20.5669 28.1994 20.2175 28.2419 19.8693L27.2493 19.7481ZM27.0845 20.6951L28.0598 20.9162C28.0989 20.7439 28.1345 20.5692 28.1652 20.3926L27.18 20.2211L26.1948 20.0496C26.1706 20.1888 26.1419 20.3301 26.1093 20.4739L27.0845 20.6951ZM27.18 20.2211L28.1652 20.3926C28.1955 20.2187 28.2216 20.0441 28.243 19.8689L27.2504 19.7474L26.2578 19.6259C26.2407 19.766 26.2196 19.9073 26.1949 20.0495L27.18 20.2211ZM27.2504 19.7474L28.243 19.8689C28.2646 19.6925 28.2809 19.5179 28.2929 19.3454L27.2953 19.2759L26.2977 19.2064C26.2879 19.3476 26.2748 19.4874 26.2578 19.6259L27.2504 19.7474ZM27.2953 19.2759L26.3 19.1789L26.254 19.6511L27.2493 19.7481L28.2445 19.8451L28.2906 19.3729L27.2953 19.2759Z" fill="#F3A74A" mask="url(#path-5-outside-1_2_171)"/>
<path d="M20.6942 7.03551V7.03551C20.926 7.08868 21.0533 7.33523 20.9718 7.55867L17.7086 16.5079C17.405 17.3406 16.2484 17.3959 15.8667 16.596L12.3417 9.21033C12.1181 8.74175 12.2885 8.17571 12.755 7.9477C15.1341 6.78474 17.9123 6.39755 20.6942 7.03551Z" fill="#FF8037"/>
<path d="M20.9718 7.55867L21.2067 7.64432L20.9718 7.55867ZM20.9718 7.55867L20.7369 7.47303L17.4738 16.4222L17.7086 16.5079L17.9435 16.5935L21.2067 7.64432L20.9718 7.55867ZM15.8667 16.596L16.0923 16.4883L12.5674 9.10265L12.3417 9.21033L12.1161 9.31801L15.641 16.7037L15.8667 16.596ZM12.755 7.9477L12.8648 8.1723C15.1944 7.03353 17.9142 6.65449 20.6383 7.27918L20.6942 7.03551L20.7501 6.79183C17.9103 6.14061 15.0738 6.53595 12.6452 7.7231L12.755 7.9477ZM12.3417 9.21033L12.5674 9.10265C12.3974 8.74649 12.5325 8.3347 12.8648 8.1723L12.755 7.9477L12.6452 7.7231C12.0445 8.01673 11.8388 8.73701 12.1161 9.31801L12.3417 9.21033ZM17.7086 16.5079L17.4738 16.4222C17.246 17.0467 16.3786 17.0883 16.0923 16.4883L15.8667 16.596L15.641 16.7037C16.1182 17.7036 17.564 17.6344 17.9435 16.5935L17.7086 16.5079ZM20.6942 7.03551L20.6383 7.27918C20.7169 7.29722 20.7693 7.38441 20.7369 7.47303L20.9718 7.55867L21.2067 7.64432C21.3373 7.28605 21.135 6.88015 20.7501 6.79183L20.6942 7.03551Z" fill="#331C13"/>
<path d="M29.907 17.0557V17.0557C29.8744 16.8201 29.64 16.6717 29.4102 16.7332L20.2094 19.1978C19.3532 19.4271 19.1965 20.5745 19.9599 21.025L27.0087 25.1849C27.4559 25.4488 28.0347 25.3288 28.3027 24.8841C29.6697 22.6162 30.2984 19.8827 29.907 17.0557Z" fill="#FF8037"/>
<path d="M29.4102 16.7332L29.3455 16.4917L29.4102 16.7332ZM29.4102 16.7332L29.4749 16.9747L20.2741 19.4393L20.2094 19.1978L20.1447 18.9563L29.3455 16.4917L29.4102 16.7332ZM19.9599 21.025L20.0869 20.8097L27.1358 24.9696L27.0087 25.1849L26.8816 25.4003L19.8328 21.2403L19.9599 21.025ZM28.3027 24.8841L28.0886 24.755C29.4271 22.5343 30.0427 19.8583 29.6594 17.09L29.907 17.0557L30.1547 17.0214C30.5542 19.9072 29.9122 22.698 28.5168 25.0131L28.3027 24.8841ZM27.0087 25.1849L27.1358 24.9696C27.4757 25.1702 27.8977 25.0717 28.0886 24.755L28.3027 24.8841L28.5168 25.0131C28.1717 25.5858 27.4361 25.7275 26.8816 25.4003L27.0087 25.1849ZM20.2094 19.1978L20.2741 19.4393C19.6319 19.6113 19.5144 20.4718 20.0869 20.8097L19.9599 21.025L19.8328 21.2403C18.8786 20.6772 19.0745 19.243 20.1447 18.9563L20.2094 19.1978ZM29.907 17.0557L29.6594 17.09C29.6483 17.0101 29.566 16.9503 29.4749 16.9747L29.4102 16.7332L29.3455 16.4917C29.7139 16.393 30.1005 16.6302 30.1547 17.0214L29.907 17.0557Z" fill="#331C13"/>
<path d="M22.3691 8.58282C22.591 8.07866 23.1813 7.84514 23.6661 8.10652C26.1173 9.42788 27.9938 11.5499 29.0369 14.0496C29.2485 14.5567 28.9602 15.1201 28.4386 15.2929L20.0125 18.0843C19.1899 18.3568 18.4337 17.5254 18.7827 16.7323L22.3691 8.58282Z" fill="#FF8037"/>
<path d="M20.0125 18.0843L19.9339 17.847L20.0125 18.0843ZM18.7827 16.7323L18.5539 16.6316L18.7827 16.7323ZM29.0369 14.0496L28.8062 14.1459L29.0369 14.0496ZM23.6661 8.10652L23.5475 8.32658C25.947 9.62011 27.7846 11.6978 28.8062 14.1459L29.0369 14.0496L29.2677 13.9533C28.203 11.402 26.2875 9.23565 23.7848 7.88646L23.6661 8.10652ZM28.4386 15.2929L28.36 15.0555L19.9339 17.847L20.0125 18.0843L20.0911 18.3216L28.5172 15.5302L28.4386 15.2929ZM18.7827 16.7323L19.0116 16.833L22.5979 8.68352L22.3691 8.58282L22.1403 8.48212L18.5539 16.6316L18.7827 16.7323ZM20.0125 18.0843L19.9339 17.847C19.317 18.0514 18.7498 17.4278 19.0116 16.833L18.7827 16.7323L18.5539 16.6316C18.1176 17.623 19.0629 18.6623 20.0911 18.3216L20.0125 18.0843ZM29.0369 14.0496L28.8062 14.1459C28.9565 14.506 28.7569 14.9241 28.36 15.0555L28.4386 15.2929L28.5172 15.5302C29.1635 15.3161 29.5406 14.6074 29.2677 13.9533L29.0369 14.0496ZM23.6661 8.10652L23.7848 7.88646C23.1591 7.5492 22.4151 7.85752 22.1403 8.48212L22.3691 8.58282L22.5979 8.68352C22.7668 8.29979 23.2034 8.14108 23.5475 8.32658L23.6661 8.10652Z" fill="#331C13"/>
</g>
<defs>
<clipPath id="clip0_2_171">
<rect width="36" height="36" fill="white"/>
</clipPath>
</defs>
</svg>
